#tb 0: 1/25
#media_type 0: video
#codec_id 0: rawvideo
#dimensions 0: 352x288
#sar 0: 0/1
0,          1,          1,        1,   152064, 0x9744ac59
0,          2,          2,        1,   152064, 0xe1c69d97
0,          3,          3,        1,   152064, 0x9ae85f93
0,          4,          4,        1,   152064, 0x452966a3
0,          5,          5,        1,   152064, 0xe8192823
0,          6,          6,        1,   152064, 0x58b764eb
0,          7,          7,        1,   152064, 0x51b686b1
0,          8,          8,        1,   152064, 0x4bca5822
0,          9,          9,        1,   152064, 0x29abc41c
0,         10,         10,        1,   152064, 0x850ec94f
0,         11,         11,        1,   152064, 0xac2c34f8
0,         12,         12,        1,   152064, 0x080c6e67
0,         13,         13,        1,   152064, 0x5e4e14d2
0,         14,         14,        1,   152064, 0x978b054c
0,         15,         15,        1,   152064, 0x861d8c3c
0,         16,         16,        1,   152064, 0xe0818918
0,         17,         17,        1,   152064, 0x8b834511
0,         18,         18,        1,   152064, 0x223f567c
0,         19,         19,        1,   152064, 0x6d61298d
0,         20,         20,        1,   152064, 0xfe30826e
0,         21,         21,        1,   152064, 0x4bad4f98
0,         22,         22,        1,   152064, 0x69d5fdca
0,         23,         23,        1,   152064, 0xe45bba1b
0,         24,         24,        1,   152064, 0xa6d81298
0,         25,         25,        1,   152064, 0x7f3f2c91
0,         26,         26,        1,   152064, 0x658754b9
0,         27,         27,        1,   152064, 0x2c6d3eba
0,         28,         28,        1,   152064, 0x4500600c
0,         29,         29,        1,   152064, 0xa745f74b
0,         30,         30,        1,   152064, 0x2bf21fca
0,         31,         31,        1,   152064, 0x08b8bdb3
0,         32,         32,        1,   152064, 0x5a9d0a8b
0,         33,         33,        1,   152064, 0x3a57d523
0,         34,         34,        1,   152064, 0x3606826e
0,         35,         35,        1,   152064, 0x3b91a8fb
0,         36,         36,        1,   152064, 0x37c28959
0,         37,         37,        1,   152064, 0xb51d1e75
0,         38,         38,        1,   152064, 0x13be3f58
0,         39,         39,        1,   152064, 0x0ed0e7cf
0,         40,         40,        1,   152064, 0x298560d4
0,         41,         41,        1,   152064, 0x62b68373
0,         42,         42,        1,   152064, 0xf8bb4520
0,         43,         43,        1,   152064, 0x90dfd6af
0,         44,         44,        1,   152064, 0xf4770d20
0,         45,         45,        1,   152064, 0x0d9549a0
0,         46,         46,        1,   152064, 0x004eccb1
0,         47,         47,        1,   152064, 0x3146d46b
0,         48,         48,        1,   152064, 0x078d1808
0,         49,         49,        1,   152064, 0x5d8d60cd
0,         50,         50,        1,   152064, 0x8ff52dd8
0,         51,         51,        1,   152064, 0x5aa3ccf7
0,         52,         52,        1,   152064, 0x5bec6c39
0,         53,         53,        1,   152064, 0xd44cae9d
0,         54,         54,        1,   152064, 0xa1b0a151
0,         55,         55,        1,   152064, 0xe3be7bb2
0,         56,         56,        1,   152064, 0x50096775
0,         57,         57,        1,   152064, 0xdffff851
0,         58,         58,        1,   152064, 0x1d7250eb
0,         59,         59,        1,   152064, 0x69663ca7
0,         60,         60,        1,   152064, 0x62f77fc7
0,         61,         61,        1,   152064, 0xbab8f471
0,         62,         62,        1,   152064, 0x6af31785
0,         63,         63,        1,   152064, 0xcbb2a9aa
0,         64,         64,        1,   152064, 0xc57c32b9
0,         65,         65,        1,   152064, 0xecbe2ce0
0,         66,         66,        1,   152064, 0x2fbebf81
0,         67,         67,        1,   152064, 0xa168af68
0,         68,         68,        1,   152064, 0x1e5631ac
0,         69,         69,        1,   152064, 0xe69fc927
0,         70,         70,        1,   152064, 0x8e5c81d8
0,         71,         71,        1,   152064, 0x42402010
0,         72,         72,        1,   152064, 0xd7267482
0,         73,         73,        1,   152064, 0x64b280df
0,         74,         74,        1,   152064, 0xc4cbafcc
0,         75,         75,        1,   152064, 0xcf2f1e8b
0,         76,         76,        1,   152064, 0x4d6fdb3f
0,         77,         77,        1,   152064, 0xf22d6fed
0,         78,         78,        1,   152064, 0x625b167c
0,         79,         79,        1,   152064, 0x41348089
0,         80,         80,        1,   152064, 0x6db2779b
0,         81,         81,        1,   152064, 0xe87030a8
0,         82,         82,        1,   152064, 0x91b29cdd
0,         83,         83,        1,   152064, 0xe824f242
0,         84,         84,        1,   152064, 0xac995380
0,         85,         85,        1,   152064, 0x7efe361b
0,         86,         86,        1,   152064, 0xe10c0c26
0,         87,         87,        1,   152064, 0x93108260
0,         88,         88,        1,   152064, 0xbf4caed7
0,         89,         89,        1,   152064, 0xb6a4d826
0,         90,         90,        1,   152064, 0x78beea4e
0,         91,         91,        1,   152064, 0xdf612df9
0,         92,         92,        1,   152064, 0xa9ef2830
0,         93,         93,        1,   152064, 0x06448895
0,         94,         94,        1,   152064, 0x332eb6d5
0,         95,         95,        1,   152064, 0x935ba2c5
0,         96,         96,        1,   152064, 0x62a22656
0,         97,         97,        1,   152064, 0x06a670a7
0,         98,         98,        1,   152064, 0xf60b1af0
0,         99,         99,        1,   152064, 0x85177c10
0,        100,        100,        1,   152064, 0x5e4e5c4b
